# File created by Blade
# Date/Time:  Fri Jan 16 19:50:04 2015
#---------------------------------------------------------
:version 1.10
:name HOM
:units
  mass 1.0
  length 1.000000
  angle deg
:documentation
     Acclaim Skeleton File
:root
   axis xyz
   order TX TY TZ RX RY RZ
   position 0.000000 0.000000 0.000000
   orientation 0 0 0
:bonedata
   begin
      id 1
      name Spine_dum
      direction 0.000000 1.000000 0.000000
      length 7.067664
      axis 0.0 0.0 0.0 xyz
   end
   begin
      id 2
      name LeftUpLeg_dum
      direction 1.000000 0.000000 0.000000
      length 4.013002
      axis 0.0 0.0 0.0 xyz
   end
   begin
      id 3
      name RightUpLeg_dum
      direction -1.000000 0.000000 0.000000
      length 4.013002
      axis 0.0 0.0 0.0 xyz
   end
   begin
      id 4
      name Spine
      direction 0.000000 1.000000 0.000000
      length 0.000000
      axis 0.0 0.0 0.0 xyz
      dof rx ry rz
   end
   begin
      id 5
      name Spine_dum1
      direction 0.000000 1.000000 0.000000
      length 15.039886
      axis 0.0 0.0 0.0 xyz
   end
   begin
      id 6
      name Spine_dum2
      direction 0.000000 1.000000 0.000000
      length 10.530368
      axis 0.0 0.0 0.0 xyz
   end
   begin
      id 7
      name Spine_dum3
      direction 0.000000 1.000000 0.000000
      length 10.530368
      axis 0.0 0.0 0.0 xyz
   end
   begin
      id 8
      name Head
      direction 0.000000 1.000000 0.000000
      length 4.527550
      axis 0.0 0.0 0.0 xyz
      dof rx ry rz
   end
   begin
      id 9
      name LeftShoulder
      direction 1.000000 0.000000 0.000000
      length 7.028855
      axis 0.0 0.0 -90.0 xyz
      dof rx ry rz
   end
   begin
      id 10
      name LeftArm
      direction 1.000000 0.000000 0.000000
      length 10.797705
      axis 0.0 0.0 -90.0 xyz
      dof rx ry rz
   end
   begin
      id 11
      name LeftForeArm
      direction 1.000000 0.000000 0.000000
      length 7.907442
      axis 0.0 0.0 -90.0 xyz
      dof ry rz rx
   end
   begin
      id 12
      name LeftHand
      direction 0.000000 0.000000 0.000000
      length 0.000000
      axis 0.0 0.0 -90.0 xyz
      dof rx ry rz
   end
   begin
      id 13
      name LeftHand_dum1
      direction 0.000000 0.000000 0.000000
      length 0.000000
      axis 0.0 0.0 -90.0 xyz
   end
   begin
      id 14
      name LeftHand_dum2
      direction 1.000000 0.000000 0.000000
      length 3.937000
      axis 0.0 0.0 -90.0 xyz
   end
   begin
      id 15
      name LeftHandThumb1
      direction 0.000000 0.000000 1.000000
      length 3.937000
      axis 0.0 0.0 -90.0 xyz
      dof rx rz ry
   end
   begin
      id 16
      name RightShoulder
      direction -1.000000 0.000000 0.000000
      length 7.028855
      axis 0.0 0.0 90.0 xyz
      dof rx ry rz
   end
   begin
      id 17
      name RightArm
      direction -1.000000 0.000000 0.000000
      length 10.797705
      axis 0.0 0.0 90.0 xyz
      dof rx ry rz
   end
   begin
      id 18
      name RightForeArm
      direction -1.000000 0.000000 0.000000
      length 7.907442
      axis 0.0 0.0 90.0 xyz
      dof ry rz rx
   end
   begin
      id 19
      name RightHand
      direction 0.000000 0.000000 0.000000
      length 0.000000
      axis 0.0 0.0 90.0 xyz
      dof rx ry rz
   end
   begin
      id 20
      name RightHand_dum1
      direction 0.000000 0.000000 0.000000
      length 0.000000
      axis 0.0 0.0 90.0 xyz
   end
   begin
      id 21
      name RightHand_dum2
      direction -1.000000 0.000000 0.000000
      length 3.937000
      axis 0.0 0.0 90.0 xyz
   end
   begin
      id 22
      name RightHandThumb1
      direction 0.000000 0.000000 1.000000
      length 3.937000
      axis 0.0 0.0 90.0 xyz
      dof rx rz ry
   end
   begin
      id 23
      name LeftUpLeg
      direction 0.000000 -1.000000 0.000000
      length 16.899758
      axis 0.0 0.0 0.0 xyz
      dof rx ry rz
   end
   begin
      id 24
      name LeftLeg
      direction 0.000000 -1.000000 0.000000
      length 17.389183
      axis 0.0 0.0 0.0 xyz
      dof rx ry rz
   end
   begin
      id 25
      name LeftFoot
      direction 0.000000 -0.258819 0.965926
      length 4.924528
      axis 15.0 0.0 0.0 xyz
      dof rx ry rz
   end
   begin
      id 26
      name LeftToeBase
      direction 0.000000 0.000000 1.000000
      length 2.952750
      axis 0.0 0.0 0.0 xyz
      dof rx ry rz
   end
   begin
      id 27
      name RightUpLeg
      direction 0.000000 -1.000000 0.000000
      length 16.899758
      axis 0.0 0.0 0.0 xyz
      dof rx ry rz
   end
   begin
      id 28
      name RightLeg
      direction 0.000000 -1.000000 0.000000
      length 17.389183
      axis 0.0 0.0 0.0 xyz
      dof rx ry rz
   end
   begin
      id 29
      name RightFoot
      direction 0.000000 -0.258819 0.965926
      length 4.924528
      axis 15.0 0.0 0.0 xyz
      dof rx ry rz
   end
   begin
      id 30
      name RightToeBase
      direction 0.000000 0.000000 1.000000
      length 2.952750
      axis 0.0 0.0 0.0 xyz
      dof rx ry rz
   end
:hierarchy
   begin
      root Spine_dum LeftUpLeg_dum RightUpLeg_dum
      Spine_dum Spine
      LeftUpLeg_dum LeftUpLeg
      RightUpLeg_dum RightUpLeg
      Spine Spine_dum1 Spine_dum2 Spine_dum3
      Spine_dum1 Head
      Spine_dum2 LeftShoulder
      Spine_dum3 RightShoulder
      LeftShoulder LeftArm
      LeftArm LeftForeArm
      LeftForeArm LeftHand
      LeftHand LeftHand_dum1 LeftHand_dum2
      LeftHand_dum1 LeftHandThumb1
      RightShoulder RightArm
      RightArm RightForeArm
      RightForeArm RightHand
      RightHand RightHand_dum1 RightHand_dum2
      RightHand_dum1 RightHandThumb1
      LeftUpLeg LeftLeg
      LeftLeg LeftFoot
      LeftFoot LeftToeBase
      RightUpLeg RightLeg
      RightLeg RightFoot
      RightFoot RightToeBase
   end

# File created by Blade
# Date/Time:  Fri Jan 16 19:49:56 2015
# Frame Rate: 120.000 fps
#------------------------------------------------------
:FULLY-SPECIFIED
:DEGREES
1
root 19.353501 35.398303 -21.202516 -171.674428 -1.411505 -178.971425
Spine -19.514263 -0.122922 -0.135390
Head 10.417564 -1.800243 3.185408
LeftShoulder -12.015176 -37.351150 22.847724
LeftArm 5.634468 4.745892 -6.635592
LeftForeArm 13.675879 0.000000 -1.728134
LeftHand -7.345701 -0.000000 -5.372090
LeftHandThumb1 -26.253704 0.000000 33.147579
RightShoulder -11.896849 -0.198254 -13.132087
RightArm 3.593126 39.206249 7.703452
RightForeArm -37.268121 -0.000000 4.744281
RightHand -5.407574 -0.000000 9.901478
RightHandThumb1 -24.326973 -0.000000 -32.862282
LeftUpLeg -0.299085 9.777541 2.633058
LeftLeg -6.376928 -0.000000 0.000000
LeftFoot -20.167695 29.334693 -11.677290
LeftToeBase 27.124625 -0.000000 -0.000000
RightUpLeg -1.256797 -10.562381 -1.850931
RightLeg -2.883227 -0.000000 0.000000
RightFoot -20.816934 -24.400840 16.138067
RightToeBase 24.566959 -0.000000 -0.000000
2
root 19.354944 35.397768 -21.205025 -171.672840 -1.392258 -178.973160
Spine -19.511849 -0.104499 -0.147309
Head 10.402501 -1.796412 3.182378
LeftShoulder -12.004712 -37.335999 22.840108
LeftArm 5.635875 4.754065 -6.630528
LeftForeArm 13.701723 0.000000 -1.723404
LeftHand -7.355253 -0.000000 -5.359414
LeftHandThumb1 -26.253704 0.000000 33.147579
RightShoulder -11.886155 -0.172718 -13.126004
RightArm 3.592077 39.152654 7.681016
RightForeArm -37.219806 -0.000000 4.732638
RightHand -5.395345 -0.000000 9.885251
RightHandThumb1 -24.326973 -0.000000 -32.862282
LeftUpLeg -0.293316 9.781162 2.632562
LeftLeg -6.377036 -0.000000 0.000000
LeftFoot -20.177757 29.350774 -11.683635
LeftToeBase 27.133615 -0.000000 -0.000000
RightUpLeg -1.261691 -10.524977 -1.856605
RightLeg -2.871457 -0.000000 0.000000
RightFoot -20.825165 -24.409140 16.140528
RightToeBase 24.567643 -0.000000 -0.000000
3
root 19.355819 35.397419 -21.209199 -171.676117 -1.385672 -178.960020
Spine -19.509539 -0.100869 -0.128474
Head 10.398306 -1.807699 3.154441
LeftShoulder -12.006458 -37.320013 22.832619
LeftArm 5.629347 4.745569 -6.632410
LeftForeArm 13.702152 -0.000000 -1.704385
LeftHand -7.384148 -0.000000 -5.349580
LeftHandThumb1 -26.253704 0.000000 33.147579
RightShoulder -11.879603 -0.193121 -13.130024
RightArm 3.610169 39.149048 7.688338
RightForeArm -37.200438 -0.000000 4.749371
RightHand -5.423553 -0.000000 9.892043
RightHandThumb1 -24.326973 -0.000000 -32.862282
LeftUpLeg -0.280372 9.842773 2.642615
LeftLeg -6.391860 -0.000000 0.000000
LeftFoot -20.161981 29.334803 -11.658679
LeftToeBase 27.135613 -0.000000 -0.000000
RightUpLeg -1.256730 -10.517896 -1.845772
RightLeg -2.860065 -0.000000 0.000000
RightFoot -20.833714 -24.405226 16.164306
RightToeBase 24.514452 -0.000000 -0.000000
4
root 19.355099 35.397179 -21.212266 -171.673109 -1.373346 -178.967396
Spine -19.509802 -0.086762 -0.138525
Head 10.405260 -1.796783 3.132687
LeftShoulder -11.994541 -37.323135 22.819561
LeftArm 5.622415 4.743843 -6.624562
LeftForeArm 13.710782 -0.000000 -1.700564
LeftHand -7.379819 -0.000000 -5.352262
LeftHandThumb1 -26.253704 0.000000 33.147579
RightShoulder -11.880117 -0.192906 -13.136078
RightArm 3.617223 39.151805 7.696451
RightForeArm -37.237322 -0.000000 4.767421
RightHand -5.426163 -0.000000 9.904936
RightHandThumb1 -24.326973 -0.000000 -32.862282
LeftUpLeg -0.276121 9.804976 2.640409
LeftLeg -6.385433 -0.000000 0.000000
LeftFoot -20.171384 29.355461 -11.677295
LeftToeBase 27.115931 -0.000000 -0.000000
RightUpLeg -1.261314 -10.504101 -1.855118
RightLeg -2.850480 -0.000000 0.000000
RightFoot -20.842694 -24.416493 16.151627
RightToeBase 24.498383 -0.000000 -0.000000
5
root 19.356840 35.396823 -21.215565 -171.669634 -1.363246 -178.960711
Spine -19.510936 -0.082262 -0.135444
Head 10.385237 -1.787196 3.129605
LeftShoulder -11.995616 -37.330140 22.826280
LeftArm 5.610423 4.771744 -6.625120
LeftForeArm 13.707611 -0.000000 -1.697878
LeftHand -7.383730 -0.000000 -5.332148
LeftHandThumb1 -26.253704 0.000000 33.147579
RightShoulder -11.890905 -0.192549 -13.137098
RightArm 3.661378 39.141640 7.721929
RightForeArm -37.223264 0.000000 4.769071
RightHand -5.450749 -0.000000 9.906217
RightHandThumb1 -24.326973 -0.000000 -32.862282
LeftUpLeg -0.270520 9.849894 2.643531
LeftLeg -6.394332 -0.000000 0.000000
LeftFoot -20.160600 29.343044 -11.661219
LeftToeBase 27.079883 -0.000000 -0.000000
RightUpLeg -1.261994 -10.480114 -1.848727
RightLeg -2.847753 -0.000000 0.000000
RightFoot -20.858774 -24.424546 16.165670
RightToeBase 24.505338 -0.000000 -0.000000
6
root 19.358593 35.396298 -21.219071 -171.665883 -1.353644 -178.953799
Spine -19.512319 -0.077981 -0.129040
Head 10.382271 -1.794357 3.101669
LeftShoulder -11.990955 -37.328254 22.822479
LeftArm 5.598014 4.755596 -6.622408
LeftForeArm 13.741420 -0.000000 -1.694552
LeftHand -7.382352 -0.000000 -5.331709
LeftHandThumb1 -26.253704 0.000000 33.147579
RightShoulder -11.877418 -0.189998 -13.134325
RightArm 3.656304 39.128677 7.698195
RightForeArm -37.171836 -0.000000 4.755998
RightHand -5.382741 -0.000000 9.942125
RightHandThumb1 -24.326973 -0.000000 -32.862282
LeftUpLeg -0.258524 9.809115 2.658134
LeftLeg -6.405753 -0.000000 0.000000
LeftFoot -20.182909 29.377886 -11.686567
LeftToeBase 27.109690 -0.000000 -0.000000
RightUpLeg -1.257809 -10.451089 -1.843411
RightLeg -2.852081 -0.000000 0.000000
RightFoot -20.849435 -24.422351 16.144356
RightToeBase 24.559618 -0.000000 -0.000000
7
root 19.358988 35.395856 -21.222427 -171.656989 -1.348921 -178.956099
Spine -19.518704 -0.076132 -0.135404
Head 10.371389 -1.779863 3.102243
LeftShoulder -11.999646 -37.332632 22.834184
LeftArm 5.597708 4.750817 -6.633847
LeftForeArm 13.746191 -0.000000 -1.691731
LeftHand -7.399003 -0.000000 -5.319743
LeftHandThumb1 -26.253704 0.000000 33.147579
RightShoulder -11.880356 -0.183972 -13.135369
RightArm 3.674358 39.122341 7.704596
RightForeArm -37.167523 -0.000000 4.754482
RightHand -5.370253 -0.000000 9.941952
RightHandThumb1 -24.326973 -0.000000 -32.862282
LeftUpLeg -0.260853 9.797605 2.658074
LeftLeg -6.404956 -0.000000 0.000000
LeftFoot -20.175041 29.386622 -11.676844
LeftToeBase 27.066646 -0.000000 -0.000000
RightUpLeg -1.261639 -10.442607 -1.845473
RightLeg -2.852388 -0.000000 0.000000
RightFoot -20.860383 -24.428964 16.154791
RightToeBase 24.510749 -0.000000 -0.000000
8
root 19.360061 35.395322 -21.225927 -171.653931 -1.340301 -178.953899
Spine -19.516491 -0.081453 -0.130382
Head 10.364092 -1.768761 3.088058
LeftShoulder -12.006831 -37.354282 22.836044
LeftArm 5.577847 4.753760 -6.622479
LeftForeArm 13.782835 -0.000000 -1.680519
LeftHand -7.398472 -0.000000 -5.322040
LeftHandThumb1 -26.253704 0.000000 33.147579
RightShoulder -11.886927 -0.204809 -13.146889
RightArm 3.709741 39.132147 7.730765
RightForeArm -37.149678 0.000000 4.747365
RightHand -5.331318 -0.000000 10.005717
RightHandThumb1 -24.326973 -0.000000 -32.862282
LeftUpLeg -0.248777 9.810580 2.659657
LeftLeg -6.420920 -0.000000 0.000000
LeftFoot -20.184380 29.385220 -11.694378
LeftToeBase 27.088366 -0.000000 -0.000000
RightUpLeg -1.259930 -10.407708 -1.846960
RightLeg -2.851072 -0.000000 0.000000
RightFoot -20.860838 -24.408347 16.214673
RightToeBase 24.379162 -0.000000 -0.000000
9
root 19.360976 35.394544 -21.229601 -171.643172 -1.331116 -178.950872
Spine -19.526502 -0.081114 -0.126383
Head 10.363883 -1.758194 3.070770
LeftShoulder -12.013545 -37.359717 22.840155
LeftArm 5.576499 4.769820 -6.617797
LeftForeArm 13.793207 -0.000000 -1.685484
LeftHand -7.422595 -0.000000 -5.335020
LeftHandThumb1 -26.253704 0.000000 33.147579
RightShoulder -11.854101 -0.159869 -13.158611
RightArm 3.668869 39.071384 7.710096
RightForeArm -37.143358 0.000000 4.765100
RightHand -5.365299 -0.000000 9.977976
RightHandThumb1 -24.326973 -0.000000 -32.862282
LeftUpLeg -0.248572 9.840101 2.661186
LeftLeg -6.429150 -0.000000 0.000000
LeftFoot -20.181323 29.369507 -11.686092
LeftToeBase 27.058119 -0.000000 -0.000000
RightUpLeg -1.261858 -10.394358 -1.843755
RightLeg -2.856319 -0.000000 0.000000
RightFoot -20.873144 -24.431031 16.153393
RightToeBase 24.502279 -0.000000 -0.000000
10
root 19.361748 35.393721 -21.233510 -171.632350 -1.329505 -178.952377
Spine -19.533957 -0.090405 -0.128997
Head 10.358676 -1.750848 3.065375
LeftShoulder -12.026243 -37.361289 22.852774
LeftArm 5.575607 4.741918 -6.622691
LeftForeArm 13.829416 -0.000000 -1.695040
LeftHand -7.422601 -0.000000 -5.339702
LeftHandThumb1 -26.253704 0.000000 33.147579
RightShoulder -11.848442 -0.171999 -13.155068
RightArm 3.683151 39.100142 7.711584
RightForeArm -37.172320 -0.000000 4.749979
RightHand -5.347911 -0.000000 9.977029
RightHandThumb1 -24.326973 -0.000000 -32.862282
LeftUpLeg -0.246026 9.821495 2.661467
LeftLeg -6.440808 -0.000000 0.000000
LeftFoot -20.199689 29.385877 -11.693627
LeftToeBase 27.129618 -0.000000 -0.000000
RightUpLeg -1.260610 -10.377648 -1.844547
RightLeg -2.866665 -0.000000 0.000000
RightFoot -20.874081 -24.449001 16.144427
RightToeBase 24.543365 -0.000000 -0.000000
11
root 19.362186 35.393147 -21.237696 -171.620958 -1.330323 -178.957749
Spine -19.543877 -0.096052 -0.137439
Head 10.346607 -1.747688 3.067550
LeftShoulder -12.034572 -37.361450 22.859001
LeftArm 5.588198 4.746477 -6.622856
LeftForeArm 13.821412 0.000000 -1.708501
LeftHand -7.447533 -0.000000 -5.352469
LeftHandThumb1 -26.253704 0.000000 33.147579
RightShoulder -11.854974 -0.161838 -13.160808
RightArm 3.698476 39.058500 7.718875
RightForeArm -37.144929 0.000000 4.742812
RightHand -5.365365 -0.000000 9.975766
RightHandThumb1 -24.326973 -0.000000 -32.862282
LeftUpLeg -0.249554 9.841071 2.654370
LeftLeg -6.444291 -0.000000 0.000000
LeftFoot -20.185692 29.369913 -11.682126
LeftToeBase 27.092066 -0.000000 -0.000000
RightUpLeg -1.258161 -10.365588 -1.849668
RightLeg -2.878132 -0.000000 0.000000
RightFoot -20.884286 -24.453586 16.134063
RightToeBase 24.525005 -0.000000 -0.000000
